# This file uses centimeters as units for non-parametric coordinates.

mtllib Chest.mtl
g default
v 0.914098 51.572100 -2.932443
v -0.000000 51.588767 -2.868612
v 1.754460 51.541165 -2.962180
v 2.601512 51.520950 -2.949682
v 3.449482 51.515975 -2.895151
v 4.270713 51.527076 -2.763777
v 5.031290 51.556304 -2.505130
v 5.701936 51.603443 -2.088020
v 6.261817 51.666591 -1.521468
v 6.695397 51.741932 -0.838193
v 6.985288 51.825921 -0.066146
v 7.116000 51.914975 0.764016
v 7.070662 52.005494 1.623032
v 6.836328 52.094108 2.479861
v 0.809558 50.963153 -2.184089
v -0.000000 50.989489 -2.290448
v 1.556757 50.846367 -2.360820
v 2.294710 50.768663 -2.601069
v 3.063889 50.760112 -2.711803
v 3.843599 50.801152 -2.658540
v 4.595340 50.861288 -2.448762
v 5.288836 50.917841 -2.078628
v 5.894717 50.965858 -1.569492
v 6.389315 51.009945 -0.942548
v 6.745996 51.053112 -0.221686
v 6.940702 51.098941 0.569769
v 6.947501 51.151334 1.409689
v 6.745809 51.212345 2.271131
v 6.342503 51.278284 3.115425
v 5.758563 51.341071 3.892398
v 5.022779 51.394459 4.560144
v 4.205263 51.436561 5.097400
v 3.386442 51.467531 5.483174
v 2.629926 51.487586 5.719952
v 1.878004 51.504284 5.814715
v 1.113915 51.515353 5.819126
v -0.000000 51.511125 5.865879
v 0.743688 50.232192 -1.799341
v -0.000000 50.234462 -2.000646
v 1.418325 50.199139 -2.086182
v 2.079309 50.176910 -2.480521
v 2.794141 50.175142 -2.663613
v 3.544905 50.188011 -2.612024
v 4.288261 50.206601 -2.384638
v 4.992085 50.224104 -2.005919
v 5.621955 50.239717 -1.507996
v 6.150275 50.255295 -0.903106
v 6.545556 50.272397 -0.211798
v 6.779535 50.292670 0.548707
v 6.821387 50.317794 1.361444
v 6.647741 50.348702 2.204104
v 6.269280 50.381972 3.039410
v 5.716073 50.411387 3.816473
v 5.020998 50.432625 4.491092
v 4.244189 50.446108 5.031547
v 3.450198 50.456532 5.403372
v 2.694747 50.463750 5.603904
v 1.944775 50.480972 5.673233
v 1.185593 50.503982 5.675934
v 0.000000 50.499322 5.748347
v 0.741887 49.465438 -1.875354
v -0.000000 49.462639 -2.002557
v 1.413529 49.472038 -2.185996
v 2.067674 49.470763 -2.553706
v 2.762696 49.476068 -2.672819
v 3.483537 49.486461 -2.542677
v 4.192931 49.494457 -2.249222
v 4.863231 49.496380 -1.836705
v 5.463965 49.491744 -1.337769
v 5.970014 49.483274 -0.755044
v 6.353200 49.472753 -0.101026
v 6.587714 49.462426 0.615533
v -0.914098 51.572104 -2.932441
v -1.754461 51.541165 -2.962178
v -2.601512 51.520950 -2.949681
v -3.449482 51.515975 -2.895150
v -4.270712 51.527076 -2.763780
v -5.031289 51.556297 -2.505130
v -5.701935 51.603443 -2.088019
v -6.261817 51.666595 -1.521470
v -6.695398 51.741936 -0.838192
v -6.985289 51.825921 -0.066145
v -7.116000 51.914975 0.764016
v -7.070661 52.005490 1.623033
v -6.836327 52.094104 2.479861
v -0.809559 50.963153 -2.184086
v -1.556757 50.846363 -2.360816
v -2.294710 50.768663 -2.601068
v -3.063889 50.760108 -2.711803
v -3.843599 50.801152 -2.658540
v -4.595339 50.861288 -2.448762
v -5.288834 50.917841 -2.078626
v -5.894716 50.965854 -1.569491
v -6.389315 51.009945 -0.942547
v -6.745996 51.053104 -0.221686
v -6.940702 51.098941 0.569768
v -6.947501 51.151334 1.409689
v -6.745809 51.212341 2.271132
v -6.342502 51.278280 3.115425
v -5.758563 51.341071 3.892398
v -5.022777 51.394463 4.560143
v -4.205263 51.436569 5.097400
v -3.386442 51.467538 5.483173
v -2.629926 51.487586 5.719951
v -1.878004 51.504280 5.814715
v -1.113915 51.515353 5.819126
v -0.743688 50.232192 -1.799341
v -1.418326 50.199135 -2.086180
v -2.079309 50.176907 -2.480520
v -2.794141 50.175142 -2.663612
v -3.544905 50.188007 -2.612024
v -4.288261 50.206598 -2.384638
v -4.992084 50.224107 -2.005919
v -5.621954 50.239717 -1.507995
v -6.150276 50.255299 -0.903105
v -6.545556 50.272397 -0.211797
v -6.779535 50.292670 0.548707
v -6.821387 50.317794 1.361445
v -6.647740 50.348706 2.204104
v -6.269280 50.381976 3.039411
v -5.716073 50.411387 3.816474
v -5.020998 50.432625 4.491092
v -4.244189 50.446108 5.031546
v -3.450199 50.456540 5.403373
v -2.694747 50.463750 5.603904
v -1.944775 50.480972 5.673233
v -1.185593 50.503982 5.675933
v -0.741887 49.465442 -1.875355
v -1.413529 49.472034 -2.185997
v -2.067674 49.470759 -2.553706
v -2.762695 49.476072 -2.672819
v -3.483537 49.486465 -2.542678
v -4.192930 49.494449 -2.249220
v -4.863229 49.496384 -1.836704
v -5.463966 49.491751 -1.337769
v -5.970015 49.483282 -0.755044
v -6.353200 49.472745 -0.101028
v -6.587716 49.462426 0.615533
v -6.646311 49.454310 1.386678
v 6.505802 49.450202 2.196199
v 6.646312 49.454306 1.386678
v 6.166911 49.449207 3.002744
v 5.641307 49.449020 3.743714
v 4.951488 49.447839 4.369460
v 4.168871 49.445666 4.858178
v 3.378191 49.444702 5.194366
v 2.648045 49.443567 5.383228
v 1.924833 49.452262 5.456269
v 1.189140 49.466592 5.474005
v 0.000000 49.459071 5.546325
v -6.505802 49.450206 2.196198
v -6.166912 49.449211 3.002744
v -5.641308 49.449028 3.743713
v -4.951487 49.447839 4.369459
v -4.168872 49.445662 4.858177
v -3.378190 49.444702 5.194366
v -2.648046 49.443571 5.383228
v -1.924834 49.452254 5.456269
v -1.189140 49.466588 5.474004
v 6.420759 52.178249 3.298204
v 5.842206 52.256019 4.037409
v 5.124708 52.324489 4.662515
v 4.323475 52.380268 5.152740
v 3.501033 52.419061 5.496354
v 2.709194 52.437730 5.686482
v 1.912996 52.440532 5.792878
v 1.103329 52.437889 5.842851
v -0.000000 52.439067 5.814457
v -6.420758 52.178245 3.298204
v -5.842206 52.256019 4.037408
v -5.124708 52.324489 4.662513
v -4.323475 52.380268 5.152739
v -3.501034 52.419065 5.496353
v -2.709195 52.437730 5.686483
v -1.912996 52.440528 5.792879
v -1.103329 52.437885 5.842851
vt 0.425000 0.045455
vt 0.425000 0.000000
vt 0.425000 0.090909
vt 0.425000 0.136364
vt 0.425000 0.181818
vt 0.425000 0.227273
vt 0.425000 0.272727
vt 0.425000 0.318182
vt 0.425000 0.363636
vt 0.425000 0.409091
vt 0.425000 0.454545
vt 0.425000 0.500000
vt 0.425000 0.545455
vt 0.425000 0.590909
vt 0.425000 0.636364
vt 0.425000 0.681818
vt 0.425000 0.727273
vt 0.450000 0.045455
vt 0.450000 0.000000
vt 0.450000 0.090909
vt 0.450000 0.136364
vt 0.450000 0.181818
vt 0.450000 0.227273
vt 0.450000 0.272727
vt 0.450000 0.318182
vt 0.450000 0.363636
vt 0.450000 0.409091
vt 0.450000 0.454545
vt 0.450000 0.500000
vt 0.450000 0.545455
vt 0.450000 0.590909
vt 0.450000 0.636364
vt 0.450000 0.681818
vt 0.450000 0.727273
vt 0.425000 0.772727
vt 0.450000 0.772727
vt 0.425000 0.818182
vt 0.450000 0.818182
vt 0.425000 0.863636
vt 0.450000 0.863636
vt 0.425000 0.909091
vt 0.450000 0.909091
vt 0.425000 0.954545
vt 0.450000 0.954545
vt 0.425000 1.000000
vt 0.450000 1.000000
vt 0.475000 0.000000
vt 0.475000 0.045455
vt 0.475000 0.090909
vt 0.475000 0.136364
vt 0.475000 0.181818
vt 0.475000 0.227273
vt 0.475000 0.272727
vt 0.475000 0.318182
vt 0.475000 0.363636
vt 0.475000 0.409091
vt 0.475000 0.454545
vt 0.475000 0.500000
vt 0.475000 0.545455
vt 0.475000 0.590909
vt 0.475000 0.636364
vt 0.475000 0.681818
vt 0.475000 0.727273
vt 0.475000 0.772727
vt 0.475000 0.818182
vt 0.475000 0.863636
vt 0.475000 0.909091
vt 0.475000 0.954545
vt 0.475000 1.000000
vt 0.500000 0.045455
vt 0.500000 0.000000
vt 0.500000 0.090909
vt 0.500000 0.136364
vt 0.500000 0.181818
vt 0.500000 0.227273
vt 0.500000 0.272727
vt 0.500000 0.318182
vt 0.500000 0.363636
vt 0.500000 0.409091
vt 0.500000 0.454545
vt 0.500000 0.500000
vt 0.500000 0.545455
vt 0.500000 0.590909
vt 0.500000 0.636364
vt 0.500000 0.681818
vt 0.500000 0.727273
vt 0.500000 0.772727
vt 0.500000 0.818182
vt 0.500000 0.863636
vt 0.500000 0.909091
vt 0.500000 0.954545
vt 0.500000 1.000000
vt 0.425000 0.045455
vt 0.425000 0.090909
vt 0.425000 0.136364
vt 0.425000 0.181818
vt 0.425000 0.227273
vt 0.425000 0.272727
vt 0.425000 0.318182
vt 0.425000 0.363636
vt 0.425000 0.409091
vt 0.425000 0.454545
vt 0.425000 0.500000
vt 0.425000 0.545455
vt 0.425000 0.590909
vt 0.425000 0.636364
vt 0.425000 0.681818
vt 0.425000 0.727273
vt 0.450000 0.045455
vt 0.450000 0.090909
vt 0.450000 0.136364
vt 0.450000 0.181818
vt 0.450000 0.227273
vt 0.450000 0.272727
vt 0.450000 0.318182
vt 0.450000 0.363636
vt 0.450000 0.409091
vt 0.450000 0.454545
vt 0.450000 0.500000
vt 0.450000 0.545455
vt 0.450000 0.590909
vt 0.450000 0.636364
vt 0.450000 0.681818
vt 0.450000 0.727273
vt 0.450000 0.772727
vt 0.425000 0.772727
vt 0.450000 0.818182
vt 0.425000 0.818182
vt 0.450000 0.863636
vt 0.425000 0.863636
vt 0.450000 0.909091
vt 0.425000 0.909091
vt 0.450000 0.954545
vt 0.425000 0.954545
vt 0.475000 0.045455
vt 0.475000 0.090909
vt 0.475000 0.136364
vt 0.475000 0.181818
vt 0.475000 0.227273
vt 0.475000 0.272727
vt 0.475000 0.318182
vt 0.475000 0.363636
vt 0.475000 0.409091
vt 0.475000 0.454545
vt 0.475000 0.500000
vt 0.475000 0.545455
vt 0.475000 0.590909
vt 0.475000 0.636364
vt 0.475000 0.681818
vt 0.475000 0.727273
vt 0.475000 0.772727
vt 0.475000 0.818182
vt 0.475000 0.863636
vt 0.475000 0.909091
vt 0.475000 0.954545
vt 0.500000 0.045455
vt 0.500000 0.090909
vt 0.500000 0.136364
vt 0.500000 0.181818
vt 0.500000 0.227273
vt 0.500000 0.272727
vt 0.500000 0.318182
vt 0.500000 0.363636
vt 0.500000 0.409091
vt 0.500000 0.454545
vt 0.500000 0.500000
vt 0.500000 0.545455
vt 0.500000 0.590909
vt 0.500000 0.636364
vt 0.500000 0.681818
vt 0.500000 0.727273
vt 0.500000 0.772727
vt 0.500000 0.818182
vt 0.500000 0.863636
vt 0.500000 0.909091
vt 0.500000 0.954545
vn -0.125144 -0.721030 -0.681509
vn -0.082334 -0.561255 -0.823538
vn -0.000002 -0.734185 -0.678949
vn -0.000002 -0.537390 -0.843334
vn -0.120358 -0.554858 -0.823193
vn -0.296912 -0.451697 -0.841316
vn -0.024387 -0.354087 -0.934894
vn -0.197097 -0.268586 -0.942876
vn 0.099083 -0.256581 -0.961431
vn 0.000804 -0.193856 -0.981030
vn 0.252240 -0.267980 -0.929818
vn 0.194246 -0.225889 -0.954590
vn 0.434882 -0.318878 -0.842137
vn 0.379793 -0.290519 -0.878269
vn 0.609903 -0.341205 -0.715261
vn 0.548746 -0.329903 -0.768142
vn 0.757618 -0.316348 -0.570911
vn 0.696128 -0.324639 -0.640324
vn 0.872520 -0.266734 -0.409343
vn 0.821576 -0.288052 -0.491975
vn 0.949956 -0.216178 -0.225503
vn 0.918992 -0.239208 -0.313421
vn 0.982847 -0.183311 -0.020229
vn 0.975286 -0.195477 -0.102989
vn 0.965423 -0.173437 0.194623
vn 0.977706 -0.167981 0.125992
vn 0.903058 -0.175725 0.391928
vn 0.927485 -0.154816 0.340300
vn 0.808535 -0.176248 0.561434
vn 0.841113 -0.144423 0.521221
vn 0.689995 -0.166436 0.704418
vn 0.729190 -0.127961 0.672241
vn 0.576584 -0.151566 0.802856
vn 0.592598 -0.106665 0.798405
vn 0.478002 -0.122802 0.869732
vn 0.458006 -0.067516 0.886382
vn 0.346466 -0.069083 0.935515
vn 0.322850 -0.048522 0.945206
vn 0.221878 -0.002979 0.975070
vn 0.178128 -0.045758 0.982943
vn 0.106535 0.021102 0.994085
vn 0.052983 -0.065486 0.996446
vn 0.020851 0.006367 0.999762
vn 0.030876 -0.088493 0.995598
vn -0.000000 0.055330 0.998468
vn 0.000000 -0.028481 0.999594
vn -0.000000 -0.191843 -0.981426
vn -0.074290 -0.188982 -0.979166
vn -0.421131 -0.109679 -0.900344
vn -0.360344 -0.011840 -0.932744
vn -0.054187 -0.052716 -0.997138
vn 0.197851 -0.148402 -0.968933
vn 0.384043 -0.243449 -0.890642
vn 0.533195 -0.295875 -0.792566
vn 0.653398 -0.308846 -0.691148
vn 0.768810 -0.293199 -0.568300
vn 0.876165 -0.263855 -0.403381
vn 0.953917 -0.226323 -0.197028
vn 0.981295 -0.187983 0.041509
vn 0.949343 -0.152490 0.274762
vn 0.866137 -0.120379 0.485094
vn 0.745968 -0.107365 0.657270
vn 0.619964 -0.111199 0.776711
vn 0.485951 -0.120419 0.865651
vn 0.337329 -0.132489 0.932017
vn 0.179378 -0.149812 0.972307
vn 0.052149 -0.163117 0.985228
vn 0.030539 -0.164217 0.985951
vn -0.000000 -0.147390 0.989079
vn 0.215151 0.048649 -0.975368
vn -0.000001 0.002476 -0.999997
vn -0.401755 0.109135 -0.909221
vn -0.470652 0.115063 -0.874784
vn -0.332930 0.102632 -0.937350
vn -0.081198 0.045237 -0.995671
vn 0.211581 -0.075153 -0.974467
vn 0.396477 -0.189881 -0.898193
vn 0.529644 -0.262216 -0.806672
vn 0.665553 -0.291032 -0.687270
vn 0.798254 -0.281709 -0.532382
vn 0.897061 -0.256738 -0.359676
vn 0.964187 -0.223650 -0.142564
vn 0.978065 -0.182893 0.099695
vn 0.935628 -0.139774 0.324135
vn 0.868322 -0.114268 0.482660
vn 0.766109 -0.109120 0.633380
vn 0.629539 -0.128853 0.766210
vn 0.491491 -0.170199 0.854089
vn 0.348342 -0.204234 0.914848
vn 0.196911 -0.214928 0.956573
vn 0.066864 -0.209628 0.975492
vn 0.026027 -0.196165 0.980225
vn -0.000001 -0.190753 0.981638
vn 0.082334 -0.561254 -0.823538
vn 0.125144 -0.721028 -0.681511
vn 0.296915 -0.451695 -0.841316
vn 0.120358 -0.554855 -0.823195
vn 0.197099 -0.268583 -0.942876
vn 0.024389 -0.354083 -0.934896
vn -0.000803 -0.193855 -0.981030
vn -0.099082 -0.256579 -0.961431
vn -0.194246 -0.225889 -0.954590
vn -0.252241 -0.267983 -0.929817
vn -0.379795 -0.290522 -0.878267
vn -0.434888 -0.318885 -0.842131
vn -0.548749 -0.329906 -0.768139
vn -0.609905 -0.341207 -0.715257
vn -0.696127 -0.324640 -0.640325
vn -0.757618 -0.316347 -0.570911
vn -0.821574 -0.288052 -0.491977
vn -0.872520 -0.266733 -0.409343
vn -0.918992 -0.239209 -0.313422
vn -0.949956 -0.216177 -0.225501
vn -0.975286 -0.195476 -0.102989
vn -0.982847 -0.183311 -0.020229
vn -0.977706 -0.167982 0.125991
vn -0.965423 -0.173438 0.194623
vn -0.927485 -0.154816 0.340300
vn -0.903057 -0.175724 0.391930
vn -0.841113 -0.144423 0.521220
vn -0.808534 -0.176247 0.561436
vn -0.729188 -0.127960 0.672243
vn -0.689992 -0.166436 0.704422
vn -0.592597 -0.106664 0.798406
vn -0.576583 -0.151566 0.802857
vn -0.458006 -0.067516 0.886381
vn -0.478003 -0.122802 0.869731
vn -0.322849 -0.048522 0.945206
vn -0.346465 -0.069083 0.935516
vn -0.178128 -0.045758 0.982943
vn -0.221879 -0.002980 0.975070
vn -0.052982 -0.065487 0.996446
vn -0.106534 0.021101 0.994085
vn -0.030876 -0.088493 0.995598
vn -0.020851 0.006366 0.999762
vn 0.074290 -0.188980 -0.979167
vn 0.421131 -0.109679 -0.900344
vn 0.360346 -0.011839 -0.932743
vn 0.054190 -0.052717 -0.997138
vn -0.197851 -0.148403 -0.968933
vn -0.384046 -0.243450 -0.890641
vn -0.533196 -0.295876 -0.792565
vn -0.653396 -0.308847 -0.691149
vn -0.768810 -0.293200 -0.568301
vn -0.876164 -0.263855 -0.403382
vn -0.953917 -0.226322 -0.197029
vn -0.981295 -0.187982 0.041510
vn -0.949343 -0.152491 0.274763
vn -0.866137 -0.120379 0.485093
vn -0.745968 -0.107365 0.657270
vn -0.619963 -0.111198 0.776712
vn -0.485951 -0.120418 0.865651
vn -0.337329 -0.132488 0.932017
vn -0.179380 -0.149811 0.972306
vn -0.052148 -0.163117 0.985228
vn -0.030539 -0.164217 0.985951
vn -0.215151 0.048649 -0.975368
vn 0.470650 0.115064 -0.874785
vn 0.401751 0.109137 -0.909222
vn 0.332931 0.102633 -0.937349
vn 0.081202 0.045237 -0.995670
vn -0.211580 -0.075154 -0.974467
vn -0.396478 -0.189882 -0.898193
vn -0.529647 -0.262218 -0.806670
vn -0.665553 -0.291033 -0.687269
vn -0.798256 -0.281709 -0.532379
vn -0.897063 -0.256734 -0.359675
vn -0.964187 -0.223649 -0.142564
vn -0.978065 -0.182894 0.099696
vn -0.935628 -0.139774 0.324134
vn -0.868323 -0.114268 0.482657
vn -0.766108 -0.109120 0.633381
vn -0.629538 -0.128852 0.766211
vn -0.491491 -0.170198 0.854090
vn -0.348342 -0.204233 0.914848
vn -0.196913 -0.214927 0.956573
vn -0.066865 -0.209627 0.975492
vn -0.026026 -0.196164 0.980226
s 1
g polySurface12 polySurface10 polySurface9 polySurface2 polySurface1 SmoothSkin2_jackie
usemtl SmoothSkin2_jackieSG
f 1/1/1 15/18/2 2/2/3
f 2/2/3 15/18/2 16/19/4
f 3/3/5 17/20/6 1/1/1
f 1/1/1 17/20/6 15/18/2
f 4/4/7 18/21/8 3/3/5
f 3/3/5 18/21/8 17/20/6
f 5/5/9 19/22/10 4/4/7
f 4/4/7 19/22/10 18/21/8
f 6/6/11 20/23/12 5/5/9
f 5/5/9 20/23/12 19/22/10
f 7/7/13 21/24/14 6/6/11
f 6/6/11 21/24/14 20/23/12
f 8/8/15 22/25/16 7/7/13
f 7/7/13 22/25/16 21/24/14
f 9/9/17 23/26/18 8/8/15
f 8/8/15 23/26/18 22/25/16
f 10/10/19 24/27/20 9/9/17
f 9/9/17 24/27/20 23/26/18
f 11/11/21 25/28/22 10/10/19
f 10/10/19 25/28/22 24/27/20
f 12/12/23 26/29/24 11/11/21
f 11/11/21 26/29/24 25/28/22
f 13/13/25 27/30/26 12/12/23
f 12/12/23 27/30/26 26/29/24
f 14/14/27 28/31/28 13/13/25
f 13/13/25 28/31/28 27/30/26
f 160/15/29 29/32/30 14/14/27
f 14/14/27 29/32/30 28/31/28
f 161/16/31 30/33/32 160/15/29
f 160/15/29 30/33/32 29/32/30
f 162/17/33 31/34/34 161/16/31
f 161/16/31 31/34/34 30/33/32
f 162/17/33 163/35/35 31/34/34
f 31/34/34 163/35/35 32/36/36
f 163/35/35 164/37/37 32/36/36
f 32/36/36 164/37/37 33/38/38
f 164/37/37 165/39/39 33/38/38
f 33/38/38 165/39/39 34/40/40
f 165/39/39 166/41/41 34/40/40
f 34/40/40 166/41/41 35/42/42
f 166/41/41 167/43/43 35/42/42
f 35/42/42 167/43/43 36/44/44
f 168/45/45 37/46/46 167/43/43
f 167/43/43 37/46/46 36/44/44
f 16/19/4 15/18/2 39/47/47
f 39/47/47 15/18/2 38/48/48
f 17/20/6 40/49/49 15/18/2
f 15/18/2 40/49/49 38/48/48
f 18/21/8 41/50/50 17/20/6
f 17/20/6 41/50/50 40/49/49
f 19/22/10 42/51/51 18/21/8
f 18/21/8 42/51/51 41/50/50
f 20/23/12 43/52/52 19/22/10
f 19/22/10 43/52/52 42/51/51
f 21/24/14 44/53/53 20/23/12
f 20/23/12 44/53/53 43/52/52
f 22/25/16 45/54/54 21/24/14
f 21/24/14 45/54/54 44/53/53
f 23/26/18 46/55/55 22/25/16
f 22/25/16 46/55/55 45/54/54
f 24/27/20 47/56/56 23/26/18
f 23/26/18 47/56/56 46/55/55
f 25/28/22 48/57/57 24/27/20
f 24/27/20 48/57/57 47/56/56
f 26/29/24 49/58/58 25/28/22
f 25/28/22 49/58/58 48/57/57
f 27/30/26 50/59/59 26/29/24
f 26/29/24 50/59/59 49/58/58
f 28/31/28 51/60/60 27/30/26
f 27/30/26 51/60/60 50/59/59
f 29/32/30 52/61/61 28/31/28
f 28/31/28 52/61/61 51/60/60
f 30/33/32 53/62/62 29/32/30
f 29/32/30 53/62/62 52/61/61
f 31/34/34 54/63/63 30/33/32
f 30/33/32 54/63/63 53/62/62
f 32/36/36 55/64/64 31/34/34
f 31/34/34 55/64/64 54/63/63
f 33/38/38 56/65/65 32/36/36
f 32/36/36 56/65/65 55/64/64
f 34/40/40 57/66/66 33/38/38
f 33/38/38 57/66/66 56/65/65
f 35/42/42 58/67/67 34/40/40
f 34/40/40 58/67/67 57/66/66
f 36/44/44 59/68/68 35/42/42
f 35/42/42 59/68/68 58/67/67
f 37/46/46 60/69/69 36/44/44
f 36/44/44 60/69/69 59/68/68
f 38/48/48 61/70/70 39/47/47
f 39/47/47 61/70/70 62/71/71
f 38/48/48 40/49/49 61/70/72
f 61/70/72 40/49/49 63/72/73
f 40/49/49 41/50/50 63/72/73
f 63/72/73 41/50/50 64/73/74
f 42/51/51 65/74/75 41/50/50
f 41/50/50 65/74/75 64/73/74
f 43/52/52 66/75/76 42/51/51
f 42/51/51 66/75/76 65/74/75
f 44/53/53 67/76/77 43/52/52
f 43/52/52 67/76/77 66/75/76
f 45/54/54 68/77/78 44/53/53
f 44/53/53 68/77/78 67/76/77
f 46/55/55 69/78/79 45/54/54
f 45/54/54 69/78/79 68/77/78
f 46/55/55 47/56/56 69/78/79
f 69/78/79 47/56/56 70/79/80
f 47/56/56 48/57/57 70/79/80
f 70/79/80 48/57/57 71/80/81
f 48/57/57 49/58/58 71/80/81
f 71/80/81 49/58/58 72/81/82
f 49/58/58 50/59/59 72/81/82
f 72/81/82 50/59/59 141/82/83
f 50/59/59 51/60/60 141/82/83
f 141/82/83 51/60/60 140/83/84
f 51/60/60 52/61/61 140/83/84
f 140/83/84 52/61/61 142/84/85
f 53/62/62 143/85/86 52/61/61
f 52/61/61 143/85/86 142/84/85
f 54/63/63 144/86/87 53/62/62
f 53/62/62 144/86/87 143/85/86
f 55/64/64 145/87/88 54/63/63
f 54/63/63 145/87/88 144/86/87
f 56/65/65 146/88/89 55/64/64
f 55/64/64 146/88/89 145/87/88
f 57/66/66 147/89/90 56/65/65
f 56/65/65 147/89/90 146/88/89
f 58/67/67 148/90/91 57/66/66
f 57/66/66 148/90/91 147/89/90
f 59/68/68 149/91/92 58/67/67
f 58/67/67 149/91/92 148/90/91
f 60/69/69 150/92/93 59/68/68
f 59/68/68 150/92/93 149/91/92
f 16/19/4 86/109/94 2/2/3
f 2/2/3 86/109/94 73/93/95
f 86/109/94 87/110/96 73/93/95
f 73/93/95 87/110/96 74/94/97
f 87/110/96 88/111/98 74/94/97
f 74/94/97 88/111/98 75/95/99
f 88/111/98 89/112/100 75/95/99
f 75/95/99 89/112/100 76/96/101
f 89/112/100 90/113/102 76/96/101
f 76/96/101 90/113/102 77/97/103
f 90/113/102 91/114/104 77/97/103
f 77/97/103 91/114/104 78/98/105
f 91/114/104 92/115/106 78/98/105
f 78/98/105 92/115/106 79/99/107
f 92/115/106 93/116/108 79/99/107
f 79/99/107 93/116/108 80/100/109
f 93/116/108 94/117/110 80/100/109
f 80/100/109 94/117/110 81/101/111
f 94/117/110 95/118/112 81/101/111
f 81/101/111 95/118/112 82/102/113
f 95/118/112 96/119/114 82/102/113
f 82/102/113 96/119/114 83/103/115
f 96/119/114 97/120/116 83/103/115
f 83/103/115 97/120/116 84/104/117
f 97/120/116 98/121/118 84/104/117
f 84/104/117 98/121/118 85/105/119
f 98/121/118 99/122/120 85/105/119
f 85/105/119 99/122/120 169/106/121
f 99/122/120 100/123/122 169/106/121
f 169/106/121 100/123/122 170/107/123
f 100/123/122 101/124/124 170/107/123
f 170/107/123 101/124/124 171/108/125
f 102/125/126 172/126/127 101/124/124
f 101/124/124 172/126/127 171/108/125
f 103/127/128 173/128/129 102/125/126
f 102/125/126 173/128/129 172/126/127
f 104/129/130 174/130/131 103/127/128
f 103/127/128 174/130/131 173/128/129
f 105/131/132 175/132/133 104/129/130
f 104/129/130 175/132/133 174/130/131
f 106/133/134 176/134/135 105/131/132
f 105/131/132 176/134/135 175/132/133
f 106/133/134 37/46/46 176/134/135
f 176/134/135 37/46/46 168/45/45
f 107/135/136 86/109/94 39/47/47
f 39/47/47 86/109/94 16/19/4
f 107/135/136 108/136/137 86/109/94
f 86/109/94 108/136/137 87/110/96
f 108/136/137 109/137/138 87/110/96
f 87/110/96 109/137/138 88/111/98
f 109/137/138 110/138/139 88/111/98
f 88/111/98 110/138/139 89/112/100
f 110/138/139 111/139/140 89/112/100
f 89/112/100 111/139/140 90/113/102
f 111/139/140 112/140/141 90/113/102
f 90/113/102 112/140/141 91/114/104
f 112/140/141 113/141/142 91/114/104
f 91/114/104 113/141/142 92/115/106
f 113/141/142 114/142/143 92/115/106
f 92/115/106 114/142/143 93/116/108
f 114/142/143 115/143/144 93/116/108
f 93/116/108 115/143/144 94/117/110
f 115/143/144 116/144/145 94/117/110
f 94/117/110 116/144/145 95/118/112
f 116/144/145 117/145/146 95/118/112
f 95/118/112 117/145/146 96/119/114
f 117/145/146 118/146/147 96/119/114
f 96/119/114 118/146/147 97/120/116
f 118/146/147 119/147/148 97/120/116
f 97/120/116 119/147/148 98/121/118
f 119/147/148 120/148/149 98/121/118
f 98/121/118 120/148/149 99/122/120
f 120/148/149 121/149/150 99/122/120
f 99/122/120 121/149/150 100/123/122
f 121/149/150 122/150/151 100/123/122
f 100/123/122 122/150/151 101/124/124
f 122/150/151 123/151/152 101/124/124
f 101/124/124 123/151/152 102/125/126
f 123/151/152 124/152/153 102/125/126
f 102/125/126 124/152/153 103/127/128
f 124/152/153 125/153/154 103/127/128
f 103/127/128 125/153/154 104/129/130
f 125/153/154 126/154/155 104/129/130
f 104/129/130 126/154/155 105/131/132
f 126/154/155 127/155/156 105/131/132
f 105/131/132 127/155/156 106/133/134
f 127/155/156 60/69/69 106/133/134
f 106/133/134 60/69/69 37/46/46
f 62/71/71 128/156/157 39/47/47
f 39/47/47 128/156/157 107/135/136
f 129/157/158 108/136/137 128/156/159
f 128/156/159 108/136/137 107/135/136
f 130/158/160 109/137/138 129/157/158
f 129/157/158 109/137/138 108/136/137
f 130/158/160 131/159/161 109/137/138
f 109/137/138 131/159/161 110/138/139
f 131/159/161 132/160/162 110/138/139
f 110/138/139 132/160/162 111/139/140
f 132/160/162 133/161/163 111/139/140
f 111/139/140 133/161/163 112/140/141
f 133/161/163 134/162/164 112/140/141
f 112/140/141 134/162/164 113/141/142
f 134/162/164 135/163/165 113/141/142
f 113/141/142 135/163/165 114/142/143
f 136/164/166 115/143/144 135/163/165
f 135/163/165 115/143/144 114/142/143
f 137/165/167 116/144/145 136/164/166
f 136/164/166 116/144/145 115/143/144
f 138/166/168 117/145/146 137/165/167
f 137/165/167 117/145/146 116/144/145
f 139/167/169 118/146/147 138/166/168
f 138/166/168 118/146/147 117/145/146
f 151/168/170 119/147/148 139/167/169
f 139/167/169 119/147/148 118/146/147
f 152/169/171 120/148/149 151/168/170
f 151/168/170 120/148/149 119/147/148
f 152/169/171 153/170/172 120/148/149
f 120/148/149 153/170/172 121/149/150
f 153/170/172 154/171/173 121/149/150
f 121/149/150 154/171/173 122/150/151
f 154/171/173 155/172/174 122/150/151
f 122/150/151 155/172/174 123/151/152
f 155/172/174 156/173/175 123/151/152
f 123/151/152 156/173/175 124/152/153
f 156/173/175 157/174/176 124/152/153
f 124/152/153 157/174/176 125/153/154
f 157/174/176 158/175/177 125/153/154
f 125/153/154 158/175/177 126/154/155
f 158/175/177 159/176/178 126/154/155
f 126/154/155 159/176/178 127/155/156
f 159/176/178 150/92/93 127/155/156
f 127/155/156 150/92/93 60/69/69
