# This file uses centimeters as units for non-parametric coordinates.

mtllib LeftCollar.mtl
g default
v 7.482462 60.696249 -0.097039
v 7.429912 60.597105 -1.004615
v 7.263106 60.641639 -0.855118
v 7.411221 59.610185 -2.319487
v 7.194277 60.268016 -1.913859
v 7.384173 55.483621 0.971240
v 7.280581 55.088100 0.187669
v 7.352704 55.231292 -0.353133
v 7.383307 57.239079 2.522540
v 7.411092 58.380109 2.579772
v 6.804604 57.770310 2.949045
v 6.756326 60.748852 -1.768942
v 6.416533 60.312108 -2.404339
v 7.489152 60.443185 0.873848
v 6.563788 60.335168 1.148359
v 7.048838 59.734744 -2.494269
v 6.625375 59.810497 1.996407
v 7.460958 59.884805 1.744370
v 6.429304 58.837368 -3.033544
v 7.415118 58.983324 -2.652679
v 6.779073 59.237304 2.306440
v 7.433223 59.090524 2.342129
v 6.461728 57.890190 -3.200375
v 7.396119 57.893505 -2.753597
v 6.884187 58.493960 2.573180
v 6.400896 56.990108 -3.408569
v 7.349914 57.064163 -2.720955
v 6.369208 56.121762 -3.674089
v 7.361083 55.772878 -2.581660
v 6.770438 57.172899 2.958447
v 6.306036 55.313591 -3.517776
v 7.014548 55.409671 -2.872618
v 7.351033 55.383490 -1.785060
v 7.201628 56.322883 2.565308
v 7.381706 56.081744 1.983519
v 6.492492 56.440076 3.294842
v 6.266613 54.583197 -3.035273
v 6.758054 54.669141 -2.423692
v 7.082660 54.789005 -1.651333
v 6.973453 55.390681 2.102744
v 6.644025 55.526407 2.984384
v 7.420140 60.246499 -1.800736
v 6.202915 60.796298 -2.188771
v 5.151138 61.372083 -1.679528
v 5.381700 61.323899 -1.299137
v 5.434984 61.286093 -0.917681
v 5.279662 61.261528 -0.554033
v 6.631692 60.830801 0.022259
v 5.561578 60.336361 -2.830146
v 5.528275 60.856729 -2.561258
v 5.843620 60.825386 0.358686
v 5.351065 60.221371 1.296678
v 6.111719 59.687730 -2.827500
v 5.466172 59.728284 1.986936
v 5.424898 58.788919 -3.535240
v 5.622360 59.208884 2.319558
v 5.447115 57.843976 -3.714362
v 5.761267 58.535436 2.780454
v 5.434891 56.949398 -3.886552
v 5.822003 57.848718 3.265799
v 5.451305 56.074853 -4.077031
v 5.844615 57.232538 3.533141
v 5.488945 55.261951 -3.903974
v 5.688488 56.522662 3.955936
v 5.588889 54.544796 -3.437094
v 6.180692 55.654732 3.773945
v 5.601646 53.829099 -3.098403
v 6.247152 53.877018 -2.685371
v 6.702232 53.969644 -2.056868
v 6.989296 54.094083 -1.266677
v 7.124014 54.240470 -0.360336
v 7.125464 54.397624 0.612868
v 7.012676 54.554342 1.604251
v 6.799074 54.701386 2.567715
v 6.479296 54.835207 3.465178
v 6.033403 54.957283 4.265324
v 5.571686 55.772754 4.438917
vt 0.593750 0.147727
vt 0.769531 0.031250
vt 0.125000 0.545455
vt 0.733165 0.068396
vt 0.150000 0.409091
vt 0.315625 0.136364
vt 0.325000 0.500000
vt 0.268750 0.113636
vt 0.396875 0.159091
vt 0.431250 0.159091
vt 0.250000 0.681818
vt 0.125000 0.409091
vt 0.100000 0.454545
vt 0.125000 0.454545
vt 0.100000 0.500000
vt 0.100000 0.545455
vt 0.100000 0.590909
vt 0.125000 0.636364
vt 0.150000 0.318182
vt 0.125000 0.363636
vt 0.150000 0.363636
vt 0.418750 0.318182
vt 0.125000 0.681818
vt 0.150000 0.681818
vt 0.150000 0.727273
vt 0.175000 0.318182
vt 0.175000 0.363636
vt 0.700000 0.102273
vt 0.400000 0.318182
vt 0.175000 0.681818
vt 0.175000 0.727273
vt 0.200000 0.272727
vt 0.200000 0.318182
vt 0.568750 0.181818
vt 0.200000 0.681818
vt 0.381250 0.318182
vt 0.200000 0.727273
vt 0.225000 0.318182
vt 0.225000 0.272727
vt 0.112500 0.181818
vt 0.225000 0.681818
vt 0.225000 0.727273
vt 0.250000 0.318182
vt 0.250000 0.272727
vt 0.156250 0.181818
vt 0.250000 0.727273
vt 0.275000 0.318182
vt 0.275000 0.272727
vt 0.200000 0.181818
vt 0.275000 0.681818
vt 0.275000 0.727273
vt 0.300000 0.272727
vt 0.300000 0.318182
vt 0.300000 0.363636
vt 0.243750 0.204545
vt 0.300000 0.636364
vt 0.337500 0.295455
vt 0.300000 0.681818
vt 0.300000 0.727273
vt 0.325000 0.272727
vt 0.325000 0.318182
vt 0.325000 0.363636
vt 0.325000 0.409091
vt 0.325000 0.590909
vt 0.325000 0.636364
vt 0.325000 0.681818
vt 0.350000 0.272727
vt 0.350000 0.318182
vt 0.350000 0.363636
vt 0.350000 0.409091
vt 0.350000 0.454545
vt 0.350000 0.500000
vt 0.350000 0.545455
vt 0.350000 0.590909
vt 0.350000 0.636364
vt 0.350000 0.681818
vt 0.325000 0.727273
vn 0.205212 0.976632 0.063855
vn 0.356046 0.913405 -0.197288
vn 0.284150 0.958698 0.012510
vn 0.353991 0.745284 -0.565015
vn 0.471121 0.648155 -0.598281
vn 0.943654 -0.291229 0.157172
vn 0.968960 -0.245171 0.031741
vn 0.953775 -0.300126 -0.015431
vn 0.683809 -0.082632 0.724968
vn 0.559101 -0.055108 0.827266
vn 0.353103 0.243120 0.903444
vn 0.449270 0.658623 -0.603633
vn 0.343043 0.914384 -0.214995
vn 0.442396 0.838360 -0.318494
vn 0.340523 0.939950 -0.023184
vn 0.326158 0.937208 0.123543
vn 0.265271 0.958073 0.108297
vn 0.138761 0.932758 0.332729
vn 0.417944 0.398362 -0.816474
vn 0.429871 0.480938 -0.764140
vn 0.418249 0.483525 -0.768942
vn 0.087711 0.911779 0.401205
vn 0.077199 0.877093 0.474076
vn 0.034512 0.862509 0.504864
vn -0.009382 0.828922 0.559285
vn 0.353903 0.371624 -0.858282
vn 0.397111 0.453060 -0.798148
vn 0.477170 0.518367 -0.709651
vn 0.112920 0.715292 0.689642
vn 0.036780 0.663767 0.747035
vn -0.038780 0.744864 0.666088
vn 0.427005 0.235313 -0.873095
vn 0.370907 0.241770 -0.896646
vn 0.390455 0.278212 -0.877578
vn 0.083952 0.477918 0.874384
vn 0.057919 0.422194 0.904653
vn -0.016904 0.523505 0.851855
vn 0.458968 0.131018 -0.878739
vn 0.436277 0.172135 -0.883194
vn 0.403553 0.064372 -0.912689
vn 0.106234 0.381575 0.918213
vn 0.071576 0.384539 0.920330
vn 0.164315 0.487028 0.857791
vn 0.486695 0.193017 -0.851982
vn 0.412839 0.206617 -0.887059
vn 0.582727 0.062158 -0.810288
vn 0.383699 0.320027 0.866232
vn 0.556998 -0.011001 -0.830441
vn 0.401237 0.015621 -0.915841
vn 0.720992 -0.098110 -0.685962
vn 0.549735 0.082359 0.831269
vn 0.556405 0.279014 0.782665
vn 0.415701 -0.281168 -0.864949
vn 0.530510 -0.369024 -0.763138
vn 0.751618 -0.398729 -0.525439
vn 0.793949 -0.550116 -0.258876
vn 0.854340 -0.472011 -0.217506
vn 0.791655 -0.193619 0.579477
vn 0.869628 -0.346282 0.351903
vn 0.692132 0.097010 0.715222
vn 0.630288 0.248606 0.735481
vn 0.452568 -0.445003 -0.772758
vn 0.602481 -0.431836 -0.671218
vn 0.818559 -0.393716 -0.418268
vn 0.930151 -0.306285 -0.202507
vn 0.907383 -0.254125 0.334778
vn 0.879398 -0.069198 0.471032
vn 0.805206 0.148313 0.574149
vn 0.503281 -0.378775 -0.776684
vn 0.697954 -0.348246 -0.625768
vn 0.875202 -0.291771 -0.385865
vn 0.949738 -0.239308 -0.201814
vn 0.976821 -0.211242 -0.034605
vn 0.970238 -0.235499 0.056383
vn 0.955900 -0.173572 0.236915
vn 0.951860 -0.027919 0.305257
vn 0.897621 0.094828 0.430447
vn 0.809223 0.214459 0.546961
vn 0.731882 0.282372 0.620174
s 1
g polySurface19 polySurface13 polySurface11 polySurface10 polySurface9 polySurface2 polySurface1 SmoothSkin2_jackie
usemtl SmoothSkin2_jackieSG
f 1/1/1 2/2/2 3/3/3
f 2/2/2 42/4/4 5/5/5
f 6/6/6 7/7/7 8/8/8
f 9/9/9 10/10/10 11/11/11
f 43/12/12 44/13/13 12/14/14
f 44/13/13 45/15/15 12/14/14
f 12/14/14 45/15/15 2/2/2
f 46/16/16 3/3/3 45/15/15
f 45/15/15 3/3/3 2/2/2
f 46/16/16 47/17/17 3/3/3
f 3/3/3 47/17/17 1/1/1
f 47/17/17 48/18/18 1/1/1
f 49/19/19 50/20/20 13/21/21
f 50/20/20 43/12/12 13/21/21
f 13/21/21 43/12/12 5/5/5
f 43/12/12 12/14/14 5/5/5
f 1/1/1 48/18/18 14/22/22
f 51/23/23 15/24/24 48/18/18
f 48/18/18 15/24/24 14/22/22
f 51/23/23 52/25/25 15/24/24
f 49/19/19 13/21/21 53/26/26
f 53/26/26 13/21/21 16/27/27
f 13/21/21 5/5/5 16/27/27
f 16/27/27 5/5/5 4/28/28
f 14/22/22 15/24/24 18/29/29
f 18/29/29 15/24/24 17/30/30
f 52/25/25 54/31/31 15/24/24
f 15/24/24 54/31/31 17/30/30
f 55/32/32 53/26/26 19/33/33
f 53/26/26 16/27/27 19/33/33
f 19/33/33 16/27/27 20/34/34
f 16/27/27 4/28/28 20/34/34
f 17/30/30 21/35/35 18/29/29
f 18/29/29 21/35/35 22/36/36
f 54/31/31 56/37/37 17/30/30
f 17/30/30 56/37/37 21/35/35
f 19/33/33 23/38/38 55/32/32
f 55/32/32 23/38/38 57/39/39
f 20/34/34 24/40/40 19/33/33
f 19/33/33 24/40/40 23/38/38
f 21/35/35 25/41/41 22/36/36
f 22/36/36 25/41/41 10/10/42
f 56/37/37 58/42/43 21/35/35
f 21/35/35 58/42/43 25/41/41
f 23/38/38 26/43/44 57/39/39
f 57/39/39 26/43/44 59/44/45
f 24/40/40 27/45/46 23/38/38
f 23/38/38 27/45/46 26/43/44
f 10/10/42 25/41/41 11/11/11
f 25/41/41 58/42/43 11/11/11
f 11/11/11 58/42/43 60/46/47
f 26/43/44 28/47/48 59/44/45
f 59/44/45 28/47/48 61/48/49
f 26/43/44 27/45/46 28/47/48
f 28/47/48 27/45/46 29/49/50
f 11/11/11 30/50/51 9/9/9
f 11/11/11 60/46/47 30/50/51
f 30/50/51 60/46/47 62/51/52
f 61/48/49 28/47/48 63/52/53
f 63/52/53 28/47/48 31/53/54
f 29/49/50 32/54/55 28/47/48
f 28/47/48 32/54/55 31/53/54
f 29/49/56 33/55/57 32/54/55
f 9/9/9 34/56/58 35/57/59
f 9/9/9 30/50/51 34/56/58
f 34/56/58 30/50/51 36/58/60
f 30/50/51 62/51/52 36/58/60
f 36/58/60 62/51/52 64/59/61
f 63/52/53 31/53/54 65/60/62
f 65/60/62 31/53/54 37/61/63
f 31/53/54 32/54/55 37/61/63
f 37/61/63 32/54/55 38/62/64
f 32/54/55 33/55/57 38/62/64
f 38/62/64 33/55/57 39/63/65
f 33/55/57 8/8/8 39/63/65
f 35/57/59 40/64/66 6/6/6
f 35/57/59 34/56/58 40/64/66
f 40/64/66 34/56/58 41/65/67
f 34/56/58 36/58/60 41/65/67
f 41/65/67 36/58/60 66/66/68
f 36/58/60 64/59/61 66/66/68
f 65/60/62 37/61/63 67/67/69
f 67/67/69 37/61/63 68/68/70
f 37/61/63 38/62/64 68/68/70
f 68/68/70 38/62/64 69/69/71
f 38/62/64 39/63/65 69/69/71
f 69/69/71 39/63/65 70/70/72
f 8/8/8 71/71/73 39/63/65
f 39/63/65 71/71/73 70/70/72
f 8/8/8 7/7/7 71/71/73
f 71/71/73 7/7/7 72/72/74
f 7/7/7 6/6/6 72/72/74
f 72/72/74 6/6/6 73/73/75
f 6/6/6 40/64/66 73/73/75
f 73/73/75 40/64/66 74/74/76
f 40/64/66 41/65/67 74/74/76
f 74/74/76 41/65/67 75/75/77
f 41/65/67 66/66/68 75/75/77
f 75/75/77 66/66/68 76/76/78
f 66/66/68 77/77/79 76/76/78
f 12/14/14 2/2/2 5/5/5
f 5/5/5 42/4/4 4/28/28
