# This file uses centimeters as units for non-parametric coordinates.

mtllib LeftElbow.mtl
g default
v 21.822637 55.711067 -2.133930
v 21.809828 55.068911 -1.970451
v 22.924613 55.652765 -2.211141
v 22.915084 55.027280 -2.038582
v 21.833598 54.535647 -1.563500
v 24.032139 55.603046 -2.197686
v 24.015317 55.015522 -2.053155
v 22.925470 54.492616 -1.645673
v 21.882789 54.128846 -1.021189
v 25.094004 55.563094 -2.145637
v 25.079218 55.037354 -1.996786
v 24.012643 54.500821 -1.703717
v 22.953357 54.087740 -1.132549
v 26.133029 55.525750 -2.069842
v 26.118944 55.045971 -1.939590
v 25.071583 54.567207 -1.697412
v 24.022995 54.118029 -1.237530
v 27.168713 55.487003 -1.991290
v 27.150381 55.026254 -1.915588
v 26.107719 54.611707 -1.691255
v 25.071956 54.213022 -1.287981
v 28.196885 55.448881 -1.946793
v 28.182331 55.066423 -1.887798
v 27.135971 54.611244 -1.705240
v 26.103053 54.286929 -1.328876
v 28.174981 54.732659 -1.673792
v 27.129705 54.320110 -1.365173
v 28.171792 54.519322 -1.325620
v 21.949717 53.879529 -0.424039
v 22.998537 53.868771 -0.572744
v 24.048259 53.938305 -0.717312
v 25.084114 54.053758 -0.797279
v 26.108510 54.156240 -0.866495
v 27.131724 54.238950 -0.929701
v 28.168185 54.493110 -0.898345
v 22.034137 53.962026 0.144221
v 23.054025 53.979742 -0.045486
v 24.077439 54.067245 -0.224700
v 25.098948 54.183696 -0.334185
v 26.116660 54.289603 -0.432273
v 27.135351 54.387269 -0.523064
v 28.165931 54.637390 -0.510015
v 22.113491 54.358414 0.555433
v 23.106731 54.371225 0.353558
v 24.105519 54.437580 0.162067
v 25.112629 54.527100 0.019371
v 26.125987 54.607074 -0.097171
v 27.144834 54.684409 -0.184449
v 28.170130 54.890221 -0.190388
v 22.171871 54.946062 0.759974
v 23.152597 54.924109 0.597851
v 24.138963 54.938222 0.426283
v 25.133602 54.979274 0.258906
v 26.142373 55.021990 0.137089
v 27.163238 55.069875 0.074914
v 28.182955 55.199755 0.043191
v 22.216539 55.606276 0.819375
v 23.193904 55.546579 0.696179
v 24.169122 55.500303 0.528895
v 25.157387 55.482867 0.379181
v 26.164699 55.490116 0.261518
v 27.183871 55.513619 0.181036
v 28.193480 55.533768 0.141998
v 22.230017 56.249244 0.647916
v 23.210757 56.159164 0.547363
v 24.183783 56.058633 0.383020
v 25.172903 55.985721 0.258302
v 26.180574 55.953663 0.163944
v 27.199296 55.953263 0.087099
v 28.214144 55.894996 0.039017
v 22.203587 56.783635 0.215401
v 23.191649 56.654999 0.112682
v 24.177625 56.514854 -0.006706
v 25.175999 56.379999 -0.097463
v 26.188503 56.306582 -0.151055
v 27.210785 56.303356 -0.190277
v 28.233747 56.208794 -0.268521
v 22.151473 57.182725 -0.344203
v 23.156591 57.024425 -0.441738
v 24.164767 56.862580 -0.498970
v 25.174442 56.676823 -0.548172
v 26.193230 56.557577 -0.579618
v 27.219709 56.535473 -0.613066
v 28.238195 56.409604 -0.716487
v 22.090326 57.429857 -0.911965
v 23.120348 57.258835 -0.993018
v 24.152753 57.079449 -1.018489
v 25.172967 56.865685 -1.046113
v 26.195993 56.711396 -1.067378
v 27.224478 56.652877 -1.096251
v 28.237354 56.485221 -1.192043
v 22.013848 57.339781 -1.434863
v 23.066696 57.167240 -1.508068
v 24.122792 56.992949 -1.528192
v 25.158227 56.802782 -1.535600
v 26.187998 56.660619 -1.535273
v 27.218193 56.587847 -1.546371
v 28.233432 56.406207 -1.614336
v 21.935588 56.945352 -1.841813
v 23.010697 56.805153 -1.915772
v 24.088264 56.664728 -1.931945
v 25.138171 56.515690 -1.915862
v 26.173885 56.399584 -1.886825
v 27.205229 56.327811 -1.870410
v 28.226160 56.166343 -1.900371
v 21.868998 56.366935 -2.083517
v 22.961972 56.273785 -2.170175
v 24.056002 56.179570 -2.179456
v 25.115923 56.079035 -2.135291
v 26.155431 55.996204 -2.075373
v 27.187853 55.936344 -2.030216
v 28.213164 55.823872 -2.015551
vt 0.000000 0.681818
vt 0.062500 0.681818
vt 0.000000 0.727273
vt 0.062500 0.727273
vt 0.125000 0.681818
vt 0.000000 0.772727
vt 0.062500 0.772727
vt 0.125000 0.727273
vt 0.187500 0.681818
vt 0.000000 0.818182
vt 0.062500 0.818182
vt 0.125000 0.772727
vt 0.187500 0.727273
vt 0.000000 0.863636
vt 0.062500 0.863636
vt 0.125000 0.818182
vt 0.187500 0.772727
vt 0.000000 0.909091
vt 0.062500 0.909091
vt 0.125000 0.863636
vt 0.187500 0.818182
vt 0.000000 0.954545
vt 0.062500 0.954545
vt 0.125000 0.909091
vt 0.187500 0.863636
vt 0.125000 0.954545
vt 0.187500 0.909091
vt 0.187500 0.954545
vt 0.250000 0.681818
vt 0.250000 0.727273
vt 0.250000 0.772727
vt 0.250000 0.818182
vt 0.250000 0.863636
vt 0.250000 0.909091
vt 0.250000 0.954545
vt 0.312500 0.681818
vt 0.312500 0.727273
vt 0.312500 0.772727
vt 0.312500 0.818182
vt 0.312500 0.863636
vt 0.312500 0.909091
vt 0.312500 0.954545
vt 0.375000 0.681818
vt 0.375000 0.727273
vt 0.375000 0.772727
vt 0.375000 0.818182
vt 0.375000 0.863636
vt 0.375000 0.909091
vt 0.375000 0.954545
vt 0.437500 0.681818
vt 0.437500 0.727273
vt 0.437500 0.772727
vt 0.437500 0.818182
vt 0.437500 0.863636
vt 0.437500 0.909091
vt 0.437500 0.954545
vt 0.500000 0.681818
vt 0.500000 0.727273
vt 0.500000 0.772727
vt 0.500000 0.818182
vt 0.500000 0.863636
vt 0.500000 0.909091
vt 0.500000 0.954545
vt 0.562500 0.681818
vt 0.562500 0.727273
vt 0.562500 0.772727
vt 0.562500 0.818182
vt 0.562500 0.863636
vt 0.562500 0.909091
vt 0.562500 0.954545
vt 0.625000 0.681818
vt 0.625000 0.727273
vt 0.625000 0.772727
vt 0.625000 0.818182
vt 0.625000 0.863636
vt 0.625000 0.909091
vt 0.625000 0.954545
vt 0.687500 0.681818
vt 0.687500 0.727273
vt 0.687500 0.772727
vt 0.687500 0.818182
vt 0.687500 0.863636
vt 0.687500 0.909091
vt 0.687500 0.954545
vt 0.750000 0.681818
vt 0.750000 0.727273
vt 0.750000 0.772727
vt 0.750000 0.818182
vt 0.750000 0.863636
vt 0.750000 0.909091
vt 0.750000 0.954545
vt 0.812500 0.681818
vt 0.812500 0.727273
vt 0.812500 0.772727
vt 0.812500 0.818182
vt 0.812500 0.863636
vt 0.812500 0.909091
vt 0.812500 0.954545
vt 0.875000 0.681818
vt 0.875000 0.727273
vt 0.875000 0.772727
vt 0.875000 0.818182
vt 0.875000 0.863636
vt 0.875000 0.909091
vt 0.875000 0.954545
vt 0.937500 0.681818
vt 0.937500 0.727273
vt 0.937500 0.772727
vt 0.937500 0.818182
vt 0.937500 0.863636
vt 0.937500 0.909091
vt 0.937500 0.954545
vn -0.073707 -0.031453 -0.996784
vn -0.034701 -0.102708 -0.994106
vn -0.075149 -0.378510 -0.922541
vn -0.042985 -0.453695 -0.890120
vn 0.026710 -0.135513 -0.990415
vn 0.024288 -0.434110 -0.900532
vn -0.077909 -0.672573 -0.735918
vn -0.060312 -0.727377 -0.683583
vn 0.056107 -0.106323 -0.992747
vn 0.049642 -0.378245 -0.924374
vn 0.007951 -0.675651 -0.737179
vn -0.077304 -0.867938 -0.490619
vn -0.040326 -0.886082 -0.461772
vn 0.061370 -0.154057 -0.986154
vn 0.031998 -0.359421 -0.932627
vn 0.040256 -0.654764 -0.754761
vn 0.020030 -0.875285 -0.483193
vn 0.038000 -0.157497 -0.986788
vn 0.038226 -0.359585 -0.932329
vn 0.016043 -0.637820 -0.770018
vn 0.054752 -0.874443 -0.482028
vn 0.036416 -0.167747 -0.985157
vn 0.038589 -0.291108 -0.955912
vn 0.060464 -0.643611 -0.762961
vn 0.035848 -0.883932 -0.466240
vn 0.081732 -0.631525 -0.771035
vn 0.077997 -0.872674 -0.482033
vn 0.184558 -0.914041 -0.361202
vn -0.041612 -0.929087 -0.367514
vn -0.063134 -0.923452 -0.378485
vn 0.028563 -0.939850 -0.340391
vn 0.074803 -0.945798 -0.316023
vn 0.064278 -0.956468 -0.284669
vn 0.143087 -0.989704 -0.003503
vn 0.228099 -0.950887 0.209246
vn 0.078013 -0.973561 0.214694
vn 0.059634 -0.982175 0.178256
vn 0.030829 -0.984827 0.170778
vn 0.042732 -0.989604 0.137325
vn 0.120138 -0.960391 0.251428
vn 0.141470 -0.896227 0.420432
vn 0.122206 -0.954287 0.272766
vn 0.144891 -0.862427 0.485001
vn 0.109423 -0.945518 0.306629
vn 0.130536 -0.858889 0.495247
vn 0.154603 -0.864290 0.478644
vn 0.185279 -0.821137 0.539821
vn 0.165429 -0.715855 0.678369
vn 0.168922 -0.564492 0.807969
vn 0.142796 -0.721116 0.677938
vn 0.173425 -0.547688 0.818512
vn 0.172641 -0.609789 0.773532
vn 0.152353 -0.598992 0.786128
vn 0.126793 -0.614952 0.778304
vn 0.126301 -0.653842 0.746015
vn 0.126915 -0.651059 0.748342
vn 0.165442 -0.285648 0.943946
vn 0.158728 -0.289416 0.943951
vn 0.166530 -0.327538 0.930046
vn 0.145754 -0.351099 0.924924
vn 0.105094 -0.387244 0.915968
vn 0.086047 -0.415254 0.905627
vn 0.069210 -0.380241 0.922294
vn 0.135174 0.056560 0.989206
vn 0.159739 0.032251 0.986632
vn 0.162846 -0.023945 0.986361
vn 0.134033 -0.005133 0.990964
vn 0.093911 -0.020769 0.995364
vn 0.062419 -0.023667 0.997769
vn 0.047289 0.066584 0.996660
vn 0.163274 0.455795 0.874981
vn 0.142744 0.523174 0.840186
vn 0.166837 0.424295 0.890022
vn 0.119570 0.410207 0.904120
vn 0.082499 0.449245 0.889591
vn 0.056413 0.442776 0.894856
vn 0.085979 0.538840 0.838009
vn 0.166269 0.738461 0.653475
vn 0.170277 0.760380 0.626760
vn 0.176075 0.734234 0.655667
vn 0.120954 0.742902 0.658382
vn 0.058207 0.743863 0.665792
vn 0.067279 0.769341 0.635286
vn 0.131066 0.831533 0.539791
vn 0.171370 0.869416 0.463409
vn 0.181480 0.879929 0.439079
vn 0.180304 0.867348 0.463895
vn 0.151791 0.882340 0.445461
vn 0.068810 0.894069 0.442611
vn 0.090520 0.928856 0.359212
vn 0.157887 0.950795 0.266571
vn 0.175910 0.909836 0.375837
vn 0.180495 0.908814 0.376137
vn 0.178407 0.909486 0.375508
vn 0.181560 0.977262 0.109520
vn 0.101402 0.987265 0.122579
vn 0.110134 0.993153 0.038950
vn 0.163606 0.984818 -0.058022
vn 0.155759 0.970563 -0.183705
vn 0.149635 0.970618 -0.188439
vn 0.146248 0.971161 -0.188303
vn 0.146032 0.971126 -0.188650
vn 0.180895 0.967829 -0.174881
vn 0.152675 0.910105 -0.385227
vn 0.142704 0.913290 -0.381494
vn 0.090271 0.923773 -0.372149
vn 0.101441 0.911135 -0.399428
vn 0.123275 0.859032 -0.496857
vn 0.067593 0.709893 -0.701059
vn 0.075813 0.730025 -0.679203
vn 0.035934 0.625899 -0.779076
vn 0.041879 0.596986 -0.801158
vn 0.085152 0.623489 -0.777181
vn 0.097222 0.635592 -0.765879
vn 0.072751 0.627461 -0.775242
vn 0.068784 0.598419 -0.798226
vn 0.101557 0.761019 -0.640731
vn -0.040285 0.304899 -0.951532
vn -0.017231 0.260335 -0.965364
vn 0.041499 0.251197 -0.967046
vn 0.066997 0.234253 -0.969864
vn 0.062301 0.205174 -0.976741
vn 0.044809 0.149974 -0.987674
vn 0.040359 0.346816 -0.937064
vn 0.030344 0.016569 -0.999402
s 1
g polySurface25 left_mid_arm polySurface1 SmoothSkin2_jackie
usemtl SmoothSkin2_jackieSG
f 1/1/1 3/3/2 2/2/3
f 2/2/3 3/3/2 4/4/4
f 3/3/2 6/6/5 4/4/4
f 4/4/4 6/6/5 7/7/6
f 2/2/3 4/4/4 5/5/7
f 5/5/7 4/4/4 8/8/8
f 10/10/9 11/11/10 6/6/5
f 6/6/5 11/11/10 7/7/6
f 7/7/6 12/12/11 4/4/4
f 4/4/4 12/12/11 8/8/8
f 5/5/7 8/8/8 9/9/12
f 9/9/12 8/8/8 13/13/13
f 10/10/9 14/14/14 11/11/10
f 11/11/10 14/14/14 15/15/15
f 11/11/10 16/16/16 7/7/6
f 7/7/6 16/16/16 12/12/11
f 12/12/11 17/17/17 8/8/8
f 8/8/8 17/17/17 13/13/13
f 14/14/14 18/18/18 15/15/15
f 15/15/15 18/18/18 19/19/19
f 15/15/15 20/20/20 11/11/10
f 11/11/10 20/20/20 16/16/16
f 16/16/16 21/21/21 12/12/11
f 12/12/11 21/21/21 17/17/17
f 22/22/22 23/23/23 18/18/18
f 18/18/18 23/23/23 19/19/19
f 19/19/19 24/24/24 15/15/15
f 15/15/15 24/24/24 20/20/20
f 20/20/20 25/25/25 16/16/16
f 16/16/16 25/25/25 21/21/21
f 23/23/23 26/26/26 19/19/19
f 19/19/19 26/26/26 24/24/24
f 24/24/24 27/27/27 20/20/20
f 20/20/20 27/27/27 25/25/25
f 26/26/26 28/28/28 24/24/24
f 24/24/24 28/28/28 27/27/27
f 13/13/13 30/30/29 9/9/12
f 9/9/12 30/30/29 29/29/30
f 17/17/17 31/31/31 13/13/13
f 13/13/13 31/31/31 30/30/29
f 21/21/21 32/32/32 17/17/17
f 17/17/17 32/32/32 31/31/31
f 25/25/25 33/33/33 21/21/21
f 21/21/21 33/33/33 32/32/32
f 27/27/27 34/34/34 25/25/25
f 25/25/25 34/34/34 33/33/33
f 27/27/27 28/28/28 34/34/34
f 34/34/34 28/28/28 35/35/35
f 30/30/36 37/37/37 29/29/38
f 29/29/38 37/37/37 36/36/39
f 31/31/40 38/38/41 30/30/36
f 30/30/36 38/38/41 37/37/37
f 32/32/42 39/39/43 31/31/40
f 31/31/40 39/39/43 38/38/41
f 33/33/44 40/40/45 32/32/42
f 32/32/42 40/40/45 39/39/43
f 34/34/34 41/41/46 33/33/44
f 33/33/44 41/41/46 40/40/45
f 34/34/34 35/35/35 41/41/46
f 41/41/46 35/35/35 42/42/47
f 37/37/48 44/44/49 36/36/50
f 36/36/50 44/44/49 43/43/51
f 38/38/41 45/45/52 37/37/48
f 37/37/48 45/45/52 44/44/49
f 38/38/41 39/39/43 45/45/52
f 45/45/52 39/39/43 46/46/53
f 39/39/43 40/40/45 46/46/53
f 46/46/53 40/40/45 47/47/54
f 40/40/45 41/41/46 47/47/54
f 47/47/54 41/41/46 48/48/55
f 41/41/46 42/42/47 48/48/55
f 48/48/55 42/42/47 49/49/56
f 43/43/51 44/44/49 50/50/57
f 50/50/57 44/44/49 51/51/58
f 44/44/49 45/45/52 51/51/58
f 51/51/58 45/45/52 52/52/59
f 45/45/52 46/46/53 52/52/59
f 52/52/59 46/46/53 53/53/60
f 46/46/53 47/47/54 53/53/60
f 53/53/60 47/47/54 54/54/61
f 47/47/54 48/48/55 54/54/61
f 54/54/61 48/48/55 55/55/62
f 48/48/55 49/49/56 55/55/62
f 55/55/62 49/49/56 56/56/63
f 50/50/57 51/51/58 57/57/64
f 57/57/64 51/51/58 58/58/65
f 51/51/58 52/52/59 58/58/65
f 58/58/65 52/52/59 59/59/66
f 52/52/59 53/53/60 59/59/66
f 59/59/66 53/53/60 60/60/67
f 53/53/60 54/54/61 60/60/67
f 60/60/67 54/54/61 61/61/68
f 54/54/61 55/55/62 61/61/68
f 61/61/68 55/55/62 62/62/69
f 55/55/62 56/56/63 62/62/69
f 62/62/69 56/56/63 63/63/70
f 58/58/65 65/65/71 57/57/64
f 57/57/64 65/65/71 64/64/72
f 59/59/66 66/66/73 58/58/65
f 58/58/65 66/66/73 65/65/71
f 59/59/66 60/60/67 66/66/73
f 66/66/73 60/60/67 67/67/74
f 60/60/67 61/61/68 67/67/74
f 67/67/74 61/61/68 68/68/75
f 61/61/68 62/62/69 68/68/75
f 68/68/75 62/62/69 69/69/76
f 62/62/69 63/63/70 69/69/76
f 69/69/76 63/63/70 70/70/77
f 65/65/71 72/72/78 64/64/72
f 64/64/72 72/72/78 71/71/79
f 66/66/73 73/73/80 65/65/71
f 65/65/71 73/73/80 72/72/78
f 67/67/74 74/74/81 66/66/73
f 66/66/73 74/74/81 73/73/80
f 67/67/74 68/68/75 74/74/81
f 74/74/81 68/68/75 75/75/82
f 68/68/75 69/69/76 75/75/82
f 75/75/82 69/69/76 76/76/83
f 69/69/76 70/70/77 76/76/83
f 76/76/83 70/70/77 77/77/84
f 72/72/78 79/79/85 71/71/79
f 71/71/79 79/79/85 78/78/86
f 73/73/80 80/80/87 72/72/78
f 72/72/78 80/80/87 79/79/85
f 74/74/81 81/81/88 73/73/80
f 73/73/80 81/81/88 80/80/87
f 75/75/82 82/82/89 74/74/81
f 74/74/81 82/82/89 81/81/88
f 75/75/82 76/76/83 82/82/89
f 82/82/89 76/76/83 83/83/90
f 76/76/83 77/77/84 83/83/90
f 83/83/90 77/77/84 84/84/91
f 79/79/85 86/86/92 78/78/86
f 78/78/86 86/86/92 85/85/93
f 80/80/87 87/87/94 79/79/85
f 79/79/85 87/87/94 86/86/92
f 81/81/88 88/88/95 80/80/87
f 80/80/87 88/88/95 87/87/94
f 82/82/89 89/89/96 81/81/88
f 81/81/88 89/89/96 88/88/95
f 82/82/89 83/83/90 89/89/96
f 89/89/96 83/83/90 90/90/97
f 83/83/90 84/84/91 90/90/97
f 90/90/97 84/84/91 91/91/98
f 86/86/99 93/93/100 85/85/101
f 85/85/101 93/93/100 92/92/102
f 87/87/103 94/94/104 86/86/99
f 86/86/99 94/94/104 93/93/100
f 87/87/103 88/88/95 94/94/104
f 94/94/104 88/88/95 95/95/105
f 88/88/95 89/89/96 95/95/105
f 95/95/105 89/89/96 96/96/106
f 89/89/96 90/90/97 96/96/106
f 96/96/106 90/90/97 97/97/107
f 90/90/97 91/91/98 97/97/107
f 97/97/107 91/91/98 98/98/108
f 92/92/109 93/93/110 99/99/111
f 99/99/111 93/93/110 100/100/112
f 93/93/110 94/94/104 100/100/112
f 100/100/112 94/94/104 101/101/113
f 94/94/104 95/95/105 101/101/113
f 101/101/113 95/95/105 102/102/114
f 95/95/105 96/96/106 102/102/114
f 102/102/114 96/96/106 103/103/115
f 96/96/106 97/97/107 103/103/115
f 103/103/115 97/97/107 104/104/116
f 97/97/107 98/98/108 104/104/116
f 104/104/116 98/98/108 105/105/117
f 99/99/111 100/100/112 106/106/118
f 106/106/118 100/100/112 107/107/119
f 100/100/112 101/101/113 107/107/119
f 107/107/119 101/101/113 108/108/120
f 101/101/113 102/102/114 108/108/120
f 108/108/120 102/102/114 109/109/121
f 102/102/114 103/103/115 109/109/121
f 109/109/121 103/103/115 110/110/122
f 103/103/115 104/104/116 110/110/122
f 110/110/122 104/104/116 111/111/123
f 104/104/116 105/105/124 111/111/123
f 111/111/123 105/105/124 112/112/125
f 106/106/118 107/107/119 1/1/1
f 1/1/1 107/107/119 3/3/2
f 107/107/119 108/108/120 3/3/2
f 3/3/2 108/108/120 6/6/5
f 108/108/120 109/109/121 6/6/5
f 6/6/5 109/109/121 10/10/9
f 109/109/121 110/110/122 10/10/9
f 10/10/9 110/110/122 14/14/14
f 110/110/122 111/111/123 14/14/14
f 14/14/14 111/111/123 18/18/18
f 111/111/123 112/112/125 18/18/18
f 18/18/18 112/112/125 22/22/22
