# This file uses centimeters as units for non-parametric coordinates.

mtllib RightCollar.mtl
g default
v -7.100007 60.305757 -1.913860
v -7.411223 59.610185 -2.319483
v -7.429914 60.683632 -1.004616
v -7.384172 55.483617 0.971239
v -7.352704 55.231288 -0.353133
v -7.280581 55.088104 0.187669
v -6.804604 57.770299 2.949038
v -7.411092 58.380101 2.579771
v -6.756322 60.748844 -1.768941
v -7.263109 60.712612 -0.855120
v -6.416535 60.312092 -2.404341
v -7.048838 59.734736 -2.494270
v -6.429303 58.837368 -3.033543
v -7.415117 58.983324 -2.652677
v -6.779074 59.237304 2.306440
v -6.461725 57.890174 -3.200371
v -7.396119 57.893505 -2.753596
v -6.884186 58.493976 2.573167
v -6.400894 56.990100 -3.408567
v -7.349914 57.064155 -2.720956
v -6.369208 56.121762 -3.674090
v -7.361084 55.772886 -2.581659
v -6.770439 57.172883 2.958452
v -6.306036 55.313594 -3.517777
v -7.014546 55.409675 -2.872618
v -6.266614 54.583189 -3.035273
v -6.758052 54.669138 -2.423692
v -7.351031 55.383494 -1.785058
v -7.201630 56.322883 2.565308
v -6.644026 55.526403 2.984384
v -7.381708 56.081748 1.983519
v -7.082657 54.789009 -1.651333
v -6.973453 55.390681 2.102743
v -7.419527 60.255831 -1.735330
v -7.383307 57.239075 2.522539
v -7.433223 59.090524 2.342135
v -7.460959 59.884801 1.744378
v -7.489153 60.443193 0.873850
v -7.482462 60.696249 -0.097042
v -5.151135 61.372087 -1.679526
v -6.202913 60.796298 -2.188773
v -5.381701 61.323903 -1.299138
v -5.434986 61.286089 -0.917681
v -5.279661 61.261524 -0.554034
v -6.631692 60.830808 0.022258
v -5.528276 60.856725 -2.561259
v -5.561578 60.336353 -2.830143
v -6.563788 60.335172 1.148359
v -5.843622 60.825402 0.358689
v -6.111718 59.687722 -2.827498
v -6.625373 59.810490 1.996406
v -5.466171 59.728265 1.986935
v -5.424895 58.788915 -3.535238
v -5.622358 59.208869 2.319564
v -5.447112 57.843972 -3.714358
v -5.761268 58.535455 2.780446
v -5.434891 56.949387 -3.886554
v -5.822005 57.848718 3.265799
v -5.451306 56.074833 -4.077033
v -5.844615 57.232530 3.533147
v -5.488945 55.261947 -3.903974
v -6.492493 56.440069 3.294843
v -5.588890 54.544792 -3.437093
v -6.180693 55.654728 3.773946
v -5.688488 56.522651 3.955936
v -5.601646 53.829099 -3.098401
v -6.247153 53.877011 -2.685371
v -6.702233 53.969640 -2.056868
v -6.989296 54.094083 -1.266680
v -6.799073 54.701378 2.567714
v -6.479296 54.835207 3.465178
v -6.033405 54.957287 4.265325
v -7.124015 54.240478 -0.360337
v -7.125465 54.397627 0.612868
v -7.012676 54.554346 1.604247
vt 0.150000 0.409091
vt 0.700000 0.102273
vt 0.673621 0.112370
vt 0.315625 0.136364
vt 0.268750 0.113636
vt 0.325000 0.500000
vt 0.396875 0.159091
vt 0.250000 0.681818
vt 0.431250 0.159091
vt 0.125000 0.454545
vt 0.100000 0.454545
vt 0.125000 0.409091
vt 0.640625 0.125000
vt 0.100000 0.500000
vt 0.125000 0.545455
vt 0.100000 0.545455
vt 0.437500 0.295455
vt 0.100000 0.590909
vt 0.125000 0.636364
vt 0.150000 0.363636
vt 0.125000 0.363636
vt 0.150000 0.318182
vt 0.418750 0.318182
vt 0.150000 0.681818
vt 0.125000 0.681818
vt 0.175000 0.363636
vt 0.175000 0.318182
vt 0.175000 0.681818
vt 0.400000 0.318182
vt 0.175000 0.727273
vt 0.200000 0.318182
vt 0.200000 0.272727
vt 0.568750 0.181818
vt 0.381250 0.318182
vt 0.200000 0.681818
vt 0.200000 0.727273
vt 0.225000 0.272727
vt 0.225000 0.318182
vt 0.112500 0.181818
vt 0.225000 0.681818
vt 0.225000 0.727273
vt 0.250000 0.272727
vt 0.250000 0.318182
vt 0.156250 0.181818
vt 0.250000 0.727273
vt 0.275000 0.272727
vt 0.275000 0.318182
vt 0.200000 0.181818
vt 0.275000 0.727273
vt 0.275000 0.681818
vt 0.300000 0.318182
vt 0.300000 0.272727
vt 0.300000 0.363636
vt 0.300000 0.681818
vt 0.325000 0.318182
vt 0.325000 0.272727
vt 0.325000 0.363636
vt 0.243750 0.204545
vt 0.300000 0.636364
vt 0.325000 0.681818
vt 0.325000 0.636364
vt 0.337500 0.295455
vt 0.300000 0.727273
vt 0.350000 0.318182
vt 0.350000 0.272727
vt 0.350000 0.363636
vt 0.325000 0.409091
vt 0.350000 0.409091
vt 0.325000 0.590909
vt 0.350000 0.636364
vt 0.350000 0.590909
vt 0.350000 0.681818
vt 0.350000 0.454545
vt 0.350000 0.500000
vt 0.350000 0.545455
vn -0.495871 0.625605 -0.602271
vn -0.494176 0.533377 -0.686512
vn -0.428584 0.699936 -0.571319
vn -0.943653 -0.291232 0.157172
vn -0.953773 -0.300131 -0.015429
vn -0.968959 -0.245175 0.031743
vn -0.683811 -0.082627 0.724965
vn -0.353106 0.243121 0.903442
vn -0.559101 -0.055109 0.827266
vn -0.440422 0.823632 -0.357294
vn -0.343048 0.914380 -0.215005
vn -0.459102 0.650602 -0.604932
vn -0.367399 0.903405 -0.221083
vn -0.315377 0.948489 -0.030105
vn -0.256428 0.964801 0.058333
vn -0.293409 0.948422 0.120029
vn -0.197940 0.973936 0.110765
vn -0.247215 0.959541 0.134784
vn -0.138767 0.932760 0.332720
vn -0.425102 0.486549 -0.763255
vn -0.429874 0.480932 -0.764142
vn -0.417943 0.398357 -0.816477
vn -0.087711 0.911779 0.401205
vn -0.052096 0.874544 0.482140
vn -0.166989 0.898665 0.405605
vn -0.400024 0.460267 -0.792550
vn -0.353900 0.371626 -0.858283
vn -0.057626 0.694887 0.716807
vn -0.112912 0.715290 0.689646
vn 0.064364 0.846540 0.528419
vn -0.370905 0.241769 -0.896648
vn -0.427006 0.235312 -0.873095
vn -0.390454 0.278212 -0.877579
vn -0.057909 0.422188 0.904657
vn -0.083947 0.477918 0.874384
vn 0.003107 0.520482 0.853867
vn -0.436279 0.172137 -0.883193
vn -0.458966 0.131017 -0.878741
vn -0.403548 0.064371 -0.912691
vn -0.071569 0.384531 0.920334
vn -0.106232 0.381568 0.918216
vn -0.164320 0.487024 0.857792
vn -0.412838 0.206620 -0.887058
vn -0.486694 0.193022 -0.851981
vn -0.582725 0.062161 -0.810289
vn -0.383706 0.320031 0.866227
vn -0.401238 0.015617 -0.915841
vn -0.556998 -0.011001 -0.830441
vn -0.720992 -0.098112 -0.685963
vn -0.520213 0.270901 0.809933
vn -0.549739 0.082365 0.831266
vn -0.530511 -0.369021 -0.763139
vn -0.415706 -0.281171 -0.864946
vn -0.751618 -0.398726 -0.525440
vn -0.702171 0.056442 0.709768
vn -0.602483 -0.431834 -0.671218
vn -0.452567 -0.445002 -0.772759
vn -0.818562 -0.393713 -0.418266
vn -0.854339 -0.472010 -0.217510
vn -0.793947 -0.550114 -0.258888
vn -0.791657 -0.193620 0.579474
vn -0.820564 0.113677 0.560137
vn -0.879398 -0.069200 0.471031
vn -0.869628 -0.346282 0.351904
vn -0.634236 0.203264 0.745941
vn -0.697957 -0.348246 -0.625765
vn -0.503281 -0.378779 -0.776682
vn -0.875205 -0.291766 -0.385861
vn -0.930151 -0.306283 -0.202508
vn -0.949740 -0.239302 -0.201814
vn -0.907384 -0.254126 0.334776
vn -0.897622 0.094827 0.430445
vn -0.951861 -0.027921 0.305257
vn -0.873656 0.143125 0.465016
vn -0.976821 -0.211241 -0.034604
vn -0.970238 -0.235499 0.056382
vn -0.955900 -0.173572 0.236913
s 1
g polySurface23 polySurface18 polySurface13 polySurface11 polySurface10 polySurface9 polySurface2 polySurface1 SmoothSkin2_jackie
usemtl SmoothSkin2_jackieSG
f 1/1/1 2/2/2 34/3/3
f 4/4/4 5/5/5 6/6/6
f 35/7/7 7/8/8 8/9/9
f 9/10/10 40/11/11 41/12/12
f 3/13/13 42/14/14 9/10/10
f 9/10/10 42/14/14 40/11/11
f 3/13/13 10/15/15 42/14/14
f 42/14/14 10/15/15 43/16/16
f 39/17/17 44/18/18 10/15/15
f 10/15/15 44/18/18 43/16/16
f 39/17/17 45/19/19 44/18/18
f 11/20/20 46/21/21 47/22/22
f 1/1/1 41/12/12 11/20/20
f 11/20/20 41/12/12 46/21/21
f 1/1/1 9/10/10 41/12/12
f 38/23/23 45/19/19 39/17/17
f 38/23/23 48/24/24 45/19/19
f 45/19/19 48/24/24 49/25/25
f 12/26/26 11/20/20 50/27/27
f 50/27/27 11/20/20 47/22/22
f 2/2/2 1/1/1 12/26/26
f 12/26/26 1/1/1 11/20/20
f 1/1/1 3/13/13 9/10/10
f 51/28/28 48/24/24 37/29/29
f 37/29/29 48/24/24 38/23/23
f 51/28/28 52/30/30 48/24/24
f 13/31/31 50/27/27 53/32/32
f 14/33/33 12/26/26 13/31/31
f 13/31/31 12/26/26 50/27/27
f 14/33/33 2/2/2 12/26/26
f 36/34/34 15/35/35 37/29/29
f 37/29/29 15/35/35 51/28/28
f 15/35/35 54/36/36 51/28/28
f 55/37/37 16/38/38 53/32/32
f 53/32/32 16/38/38 13/31/31
f 16/38/38 17/39/39 13/31/31
f 13/31/31 17/39/39 14/33/33
f 8/9/40 18/40/41 36/34/34
f 36/34/34 18/40/41 15/35/35
f 18/40/41 56/41/42 15/35/35
f 15/35/35 56/41/42 54/36/36
f 57/42/43 19/43/44 55/37/37
f 55/37/37 19/43/44 16/38/38
f 19/43/44 20/44/45 16/38/38
f 16/38/38 20/44/45 17/39/39
f 7/8/8 18/40/41 8/9/40
f 58/45/46 56/41/42 7/8/8
f 7/8/8 56/41/42 18/40/41
f 59/46/47 21/47/48 57/42/43
f 57/42/43 21/47/48 19/43/44
f 22/48/49 20/44/45 21/47/48
f 21/47/48 20/44/45 19/43/44
f 60/49/50 58/45/46 23/50/51
f 23/50/51 58/45/46 7/8/8
f 24/51/52 21/47/48 61/52/53
f 61/52/53 21/47/48 59/46/47
f 24/51/52 25/53/54 21/47/48
f 21/47/48 25/53/54 22/48/49
f 62/54/55 60/49/50 23/50/51
f 35/7/7 23/50/51 7/8/8
f 26/55/56 24/51/52 63/56/57
f 63/56/57 24/51/52 61/52/53
f 27/57/58 25/53/54 26/55/56
f 26/55/56 25/53/54 24/51/52
f 25/53/54 28/58/59 22/48/60
f 62/54/55 23/50/51 29/59/61
f 29/59/61 23/50/51 35/7/7
f 64/60/62 62/54/55 30/61/63
f 30/61/63 62/54/55 29/59/61
f 31/62/64 29/59/61 35/7/7
f 64/60/62 65/63/65 62/54/55
f 67/64/66 26/55/56 66/65/67
f 66/65/67 26/55/56 63/56/57
f 68/66/68 27/57/58 67/64/66
f 67/64/66 27/57/58 26/55/56
f 32/67/69 28/58/59 27/57/58
f 27/57/58 28/58/59 25/53/54
f 69/68/70 32/67/69 68/66/68
f 68/66/68 32/67/69 27/57/58
f 32/67/69 5/5/5 28/58/59
f 30/61/63 29/59/61 33/69/71
f 33/69/71 29/59/61 31/62/64
f 71/70/72 30/61/63 70/71/73
f 70/71/73 30/61/63 33/69/71
f 4/4/4 33/69/71 31/62/64
f 72/72/74 64/60/62 71/70/72
f 71/70/72 64/60/62 30/61/63
f 69/68/70 73/73/75 32/67/69
f 32/67/69 73/73/75 5/5/5
f 74/74/76 6/6/6 73/73/75
f 73/73/75 6/6/6 5/5/5
f 70/71/73 33/69/71 75/75/77
f 75/75/77 33/69/71 4/4/4
f 75/75/77 4/4/4 74/74/76
f 74/74/76 4/4/4 6/6/6
f 39//17 10//15 3//13
f 1/1/1 34/3/3 3/13/13
